<svg id="Capa_1" enable-background="new 0 0 512 512" height="512" viewBox="0 0 512 512" width="512" xmlns="http://www.w3.org/2000/svg" xmlns:xlink="http://www.w3.org/1999/xlink"><linearGradient id="SVGID_1_" gradientUnits="userSpaceOnUse" x1="226" x2="226" y1="437" y2="0"><stop offset="0" stop-color="#fd5900"/><stop offset="1" stop-color="#ffde00"/></linearGradient><linearGradient id="SVGID_2_" gradientUnits="userSpaceOnUse" x1="256" x2="256" y1="512" y2="91"><stop offset="0" stop-color="#ffe59a"/><stop offset="1" stop-color="#ffffd5"/></linearGradient><g><g><g><path d="m226 180.956c43.853 0 76.637-37.726 75.41-74.004-1.348-40.825-40.166-80.878-58.799-97.182-2.637-2.285-4.717-4.087-6.006-5.376-5.859-5.859-15.352-5.859-21.211 0-1.611 1.626-4.102 3.779-7.09 6.416-19.834 17.461-56.748 56.137-58.008 95.966-1.158 35.841 31.526 74.18 75.704 74.18zm0 45.044-105 75v136h210v-136z" fill="url(#SVGID_1_)"/></g></g><g><g><path d="m151 331c16.569 0 30-13.433 30-30v-15c0-24.853 20.147-45 45-45s45 20.147 45 45v15c0 16.567 13.431 30 30 30s30-13.433 30-30v-45c0-24.814-20.186-45-45-45h-45v-105c0-8.291-6.709-15-15-15s-15 6.709-15 15v105h-45c-24.814 0-45 20.186-45 45v45c0 16.567 13.431 30 30 30zm316 91h-452c-8.291 0-15 6.709-15 15s6.709 15 15 15h7.881c26.221 0 43.564 18.354 51.592 29.312 14.091 19.218 37.738 30.688 61.527 30.688h180c36.23 0 66.525-25.81 73.491-60h77.509c8.262 0 15 6.724 15 15s-6.738 15-15 15h-30c-8.291 0-15 6.709-15 15s6.709 15 15 15h30c24.814 0 45-20.186 45-45s-20.186-45-45-45z" fill="url(#SVGID_2_)"/></g></g></g></svg>