<svg height="512pt" viewBox="-59 0 512 512" width="512pt" xmlns="http://www.w3.org/2000/svg"><path d="m196.550781 512c-108.378906 0-196.550781-88.171875-196.550781-196.550781 0-78.863281 46.867188-149.84375 119.40625-180.828125l153.652344-.265625c72.921875 30.839843 120.039062 101.925781 120.039062 181.09375 0 108.378906-88.171875 196.550781-196.546875 196.550781zm0 0" fill="#83e685"/><path d="m243.808594 74.5625c3.207031-6.765625 5.007812-14.324219 5.007812-22.296875 0-28.820313-23.449218-52.265625-52.265625-52.265625-28.820312 0-52.269531 23.445312-52.269531 52.269531 0 7.96875 1.800781 15.527344 5.007812 22.296875h-38.726562v97.722656l37.386719-17.007812 24.941406 16.175781 23.664063-15.351562 23.664062 15.351562 24.929688-16.175781 37.382812 17.011719v-97.730469zm-69.554688-22.292969c0-12.296875 10-22.296875 22.296875-22.296875 12.292969 0 22.296875 10 22.296875 22.296875 0 12.292969-10.003906 22.296875-22.296875 22.296875-12.296875-.003906-22.296875-10.003906-22.296875-22.296875zm0 0" fill="#fed843"/><path d="m273.058594 134.351562-76.507813.136719v377.511719c108.375 0 196.546875-88.171875 196.546875-196.550781 0-79.167969-47.117187-150.253907-120.039062-181.097657zm0 0" fill="#1aaa94"/><path d="m243.808594 74.5625c3.207031-6.765625 5.007812-14.324219 5.007812-22.296875 0-28.820313-23.449218-52.265625-52.265625-52.265625v29.972656c12.292969 0 22.296875 10 22.296875 22.296875 0 12.292969-10.003906 22.296875-22.296875 22.296875v81.542969l.003907-.003906 23.664062 15.351562 24.933594-16.175781 37.378906 17.011719v-97.730469zm0 0" fill="#edbe2b"/><path d="m368.878906 220.78125h-344.636718c-12.582032 22.917969-20.632813 48.429688-23.277344 75.210938h391.171875c-2.640625-26.792969-10.6875-52.300782-23.257813-75.210938zm0 0" fill="#f2f2fc"/><path d="m368.878906 220.78125h-172.328125v75.210938h195.585938c-2.640625-26.792969-10.6875-52.300782-23.257813-75.210938zm0 0" fill="#e2d9fb"/><path d="m127.054688 370.847656 69.402343 47.554688 69.660157-47.179688 69.410156 47.554688 43.015625-29.128906c5.777343-14.121094 9.96875-29.054688 12.324219-44.582032l-55.242188 37.414063-69.40625-47.558594-69.664062 47.179687-69.402344-47.554687-69.65625 47.179687-55.453125-37.996093c2.246093 15.507812 6.304687 30.4375 11.960937 44.5625l43.394532 29.734375zm0 0" fill="#e2407a"/><path d="m266.21875 334.925781-69.664062 47.179688-.003907-.003907v36.242188l69.566407-47.121094 69.410156 47.554688 43.015625-29.128906c5.777343-14.121094 9.96875-29.054688 12.324219-44.582032l-55.242188 37.414063zm0 0" fill="#b51359"/></svg>