<?xml version="1.0" encoding="iso-8859-1"?>
<!-- Generator: Adobe Illustrator 19.0.0, SVG Export Plug-In . SVG Version: 6.00 Build 0)  -->
<svg version="1.1" id="Capa_1" xmlns="http://www.w3.org/2000/svg" xmlns:xlink="http://www.w3.org/1999/xlink" x="0px" y="0px"
	 viewBox="0 0 480 480" style="enable-background:new 0 0 480 480;" xml:space="preserve">
<g>
	<g>
		<path d="M472,128h-50.848c30.959-24.906,35.866-70.193,10.96-101.152C418.443,9.857,397.806-0.017,376,0h-70.144
			C277.334,0.01,251.507,16.855,240,42.952C228.493,16.855,202.666,0.01,174.144,0H104C64.266-0.031,32.031,32.155,32,71.888
			C31.983,93.694,41.857,114.331,58.848,128H8c-4.418,0-8,3.582-8,8v80c0,4.418,3.582,8,8,8h16v248c0,4.418,3.582,8,8,8h416
			c4.418,0,8-3.582,8-8V224h16c4.418,0,8-3.582,8-8v-80C480,131.582,476.418,128,472,128z M361.816,16.664
			c0.648-0.096,1.288-0.224,1.936-0.304c2.026-0.232,4.064-0.352,6.104-0.36H376c30.913,0.035,55.965,25.087,56,56
			c-0.035,30.913-25.087,55.965-56,56h-18.792c30.928-24.923,35.796-70.199,10.873-101.127c-2.82-3.5-5.962-6.727-9.385-9.641
			C359.728,17.016,360.768,16.824,361.816,16.664z M341.056,24.344c26.395,15.975,34.842,50.323,18.866,76.718
			C349.778,117.824,331.593,128.046,312,128h-27.768l34.32-78.448C323.27,39.027,331.132,30.221,341.056,24.344z M284.424,144
			h54.632l37.784,75.576L403.056,272H376c-2.518,0-4.889,1.186-6.4,3.2l-15.904,21.2l-38.04-83.68L284.424,144z M295.944,208H280
			v-35.072L295.944,208z M138.944,24.344c9.924,5.877,17.786,14.683,22.504,25.208L195.768,128H168
			c-30.853,0.072-55.922-24.881-55.994-55.734C111.96,52.674,122.182,34.489,138.944,24.344z M195.576,144l-31.2,68.688
			L126.304,296.4L110.4,275.2c-1.511-2.014-3.882-3.2-6.4-3.2H76.944l26.256-52.424L140.944,144H195.576z M48,72
			c0.035-30.913,25.087-55.965,56-56h6.144c2.04,0.008,4.078,0.128,6.104,0.36c0.648,0.08,1.288,0.208,1.936,0.304
			c1.048,0.16,2.088,0.352,3.12,0.568c-30.247,25.745-33.897,71.136-8.153,101.383c2.913,3.423,6.141,6.565,9.641,9.385H104
			C73.087,127.965,48.035,102.913,48,72z M16,208v-64h107.056l-32,64H16z M200,464H40V224h43.056L56.84,276.424
			c-1.975,3.952-0.372,8.757,3.58,10.732c1.112,0.555,2.337,0.844,3.58,0.844h36l21.6,28.8c1.511,2.014,3.882,3.2,6.4,3.2
			c0.289,0,0.577-0.016,0.864-0.048c2.802-0.311,5.233-2.074,6.4-4.64L176.8,224H200V464z M200,208h-15.944L200,172.928V208z
			 M176.104,43.144C171.446,32.543,164.286,23.229,155.24,16h18.904c22.248,0,42.386,13.17,51.304,33.552l5.816,13.304L208,116.04
			L176.104,43.144z M264,464h-48V144h48V464z M220.232,128l34.32-78.448C263.47,29.17,283.608,16,305.856,16H324.8
			c-9.046,7.229-16.206,16.543-20.864,27.144L266.768,128H220.232z M440,464H280V224h23.2l41.52,91.312
			c1.167,2.566,3.598,4.329,6.4,4.64c0.292,0.033,0.586,0.049,0.88,0.048c2.518,0,4.889-1.186,6.4-3.2L380,288h36
			c4.418,0.024,8.02-3.538,8.044-7.956c0.007-1.256-0.282-2.496-0.844-3.62L396.944,224H440V464z M464,208h-75.056l-32-64H464V208z"
			/>
	</g>
</g>
<g>
</g>
<g>
</g>
<g>
</g>
<g>
</g>
<g>
</g>
<g>
</g>
<g>
</g>
<g>
</g>
<g>
</g>
<g>
</g>
<g>
</g>
<g>
</g>
<g>
</g>
<g>
</g>
<g>
</g>
</svg>
