<svg height="512pt" viewBox="-30 0 512 512" width="512pt" xmlns="http://www.w3.org/2000/svg"><path d="m309.964844 423.738281v51.035157c0 20.5625-16.6875 37.226562-37.25 37.226562h-93.386719c-20.5625 0-37.226563-16.664062-37.226563-37.226562v-51.035157zm0 0" fill="#beccd3"/><path d="m309.964844 423.738281v51.035157c0 20.5625-16.6875 37.226562-37.25 37.226562h-40.648438c-20.5625 0-37.226562-16.664062-37.226562-37.226562v-51.035157zm0 0" fill="#dae6ed"/><path d="m352.796875 346.210938c0-70.015626-56.757813-227.488282-126.773437-227.488282-70.015626 0-126.773438 157.476563-126.773438 227.488282 0 70.015624 56.757812 95.601562 126.773438 95.601562 70.015624 0 126.773437-25.585938 126.773437-95.601562zm0 0" fill="#ffe66b"/><path d="m226.027344 441.816406c-70.015625 0-126.777344-25.585937-126.777344-95.601562s56.761719-227.492188 126.777344-227.492188c-35.699219 0-64.640625 157.476563-64.640625 227.492188s28.941406 95.601562 64.640625 95.601562zm0 0" fill="#f79e31"/><path d="m274.59375 386.234375v50.660156c-14.960938 3.371094-31.363281 4.917969-48.570312 4.917969-17.203126 0-33.597657-1.546875-48.558594-4.917969v-50.660156c0-9.34375 7.578125-16.921875 16.933594-16.921875h63.261718c9.355469 0 16.933594 7.578125 16.933594 16.921875zm0 0" fill="#f79e31"/><path d="m194.394531 387.511719c-4.308593 0-7.796875-3.492188-7.796875-7.796875v-47.078125l-34.703125-60.316407c-2.148437-3.730468-.863281-8.496093 2.867188-10.644531 3.734375-2.144531 8.5-.863281 10.648437 2.871094l35.742188 62.121094c.679687 1.179687 1.039062 2.523437 1.039062 3.886719v49.160156c0 4.304687-3.492187 7.796875-7.796875 7.796875zm0 0" fill="#f79e31"/><path d="m257.660156 387.511719c-4.304687 0-7.796875-3.492188-7.796875-7.796875v-49.160156c0-1.367188.359375-2.707032 1.039063-3.890626l35.742187-62.117187c2.148438-3.734375 6.914063-5.019531 10.648438-2.871094 3.730469 2.148438 5.015625 6.914063 2.867187 10.644531l-34.703125 60.316407v47.074219c0 4.308593-3.488281 7.800781-7.796875 7.800781zm0 0" fill="#f79e31"/><g fill="#ffe66b"><path d="m226.023438 83.0625c-4.308594 0-7.796876-3.492188-7.796876-7.796875v-67.46875c0-4.304687 3.488282-7.796875 7.796876-7.796875 4.308593 0 7.796874 3.492188 7.796874 7.796875v67.46875c0 4.304687-3.488281 7.796875-7.796874 7.796875zm0 0"/><path d="m306.957031 127.425781c-1.738281 0-3.484375-.578125-4.933593-1.761719-3.332032-2.726562-3.824219-7.640624-1.097657-10.972656l43.164063-52.753906c2.730468-3.335938 7.644531-3.824219 10.972656-1.097656 3.335938 2.726562 3.824219 7.636718 1.097656 10.972656l-43.164062 52.753906c-1.539063 1.882813-3.78125 2.859375-6.039063 2.859375zm0 0"/><path d="m355.527344 217.355469c-2.910156 0-5.703125-1.636719-7.039063-4.4375-1.859375-3.882813-.214843-8.539063 3.667969-10.394531l55.15625-26.378907c3.882812-1.859375 8.539062-.21875 10.398438 3.667969 1.855468 3.886719.214843 8.539062-3.671876 10.398438l-55.152343 26.378906c-1.085938.519531-2.234375.765625-3.359375.765625zm0 0"/><path d="m444.25 315.671875h-59.953125c-4.304687 0-7.796875-3.492187-7.796875-7.796875s3.492188-7.796875 7.796875-7.796875h59.953125c4.304688 0 7.796875 3.492187 7.796875 7.796875s-3.492187 7.796875-7.796875 7.796875zm0 0"/><path d="m414.269531 448.765625c-1.378906 0-2.769531-.363281-4.03125-1.128906l-45.566406-27.574219c-3.679687-2.230469-4.863281-7.023438-2.628906-10.707031 2.226562-3.683594 7.019531-4.863281 10.707031-2.632813l45.5625 27.574219c3.683594 2.230469 4.863281 7.023437 2.632812 10.707031-1.464843 2.421875-4.039062 3.761719-6.675781 3.761719zm0 0"/><path d="m145.089844 127.425781c-2.257813 0-4.5-.972656-6.039063-2.859375l-43.167969-52.753906c-2.726562-3.335938-2.234374-8.246094 1.097657-10.972656 3.332031-2.726563 8.246093-2.238282 10.972656 1.097656l43.164063 52.753906c2.726562 3.332032 2.238281 8.246094-1.097657 10.972656-1.445312 1.183594-3.195312 1.761719-4.929687 1.761719zm0 0"/><path d="m96.519531 217.355469c-1.128906 0-2.273437-.246094-3.359375-.765625l-55.15625-26.378906c-3.882812-1.859376-5.523437-6.511719-3.667968-10.398438 1.859374-3.886719 6.511718-5.53125 10.398437-3.667969l55.15625 26.378907c3.882813 1.855468 5.527344 6.511718 3.667969 10.394531-1.339844 2.800781-4.128906 4.4375-7.039063 4.4375zm0 0"/><path d="m67.75 315.671875h-59.953125c-4.308594 0-7.796875-3.492187-7.796875-7.796875s3.488281-7.796875 7.796875-7.796875h59.953125c4.304688 0 7.796875 3.492187 7.796875 7.796875s-3.492187 7.796875-7.796875 7.796875zm0 0"/><path d="m37.78125 448.765625c-2.640625 0-5.210938-1.339844-6.679688-3.761719-2.230468-3.683594-1.050781-8.476562 2.632813-10.707031l45.5625-27.578125c3.6875-2.226562 8.476563-1.050781 10.710937 2.632812 2.230469 3.683594 1.050782 8.480469-2.632812 10.710938l-45.566406 27.574219c-1.261719.765625-2.652344 1.128906-4.027344 1.128906zm0 0"/></g></svg>