<?xml version="1.0" encoding="iso-8859-1"?>
<!-- Generator: Adobe Illustrator 19.0.0, SVG Export Plug-In . SVG Version: 6.00 Build 0)  -->
<svg version="1.1" id="Layer_1" xmlns="http://www.w3.org/2000/svg" xmlns:xlink="http://www.w3.org/1999/xlink" x="0px" y="0px"
	 viewBox="0 0 496.8 496.8" style="enable-background:new 0 0 496.8 496.8;" xml:space="preserve">
<circle style="fill:#EF4D4E;" cx="173.6" cy="246.4" r="51.2"/>
<path style="fill:#CE3A41;" d="M173.6,194.4c28.8,0,51.2,23.2,51.2,51.2c0,28-23.2,51.2-51.2,51.2"/>
<g>
	<path style="fill:#F4929C;" d="M149.6,240c-4,12-11.2,19.2-16.8,17.6c-5.6-1.6-6.4-12.8-2.4-24.8s11.2-19.2,16.8-17.6
		C152,217.6,153.6,228,149.6,240z"/>
	
		<ellipse transform="matrix(0.894 -0.448 0.448 0.894 -76.7967 92.3831)" style="fill:#F4929C;" cx="156.882" cy="208.525" rx="8" ry="4"/>
</g>
<circle style="fill:#EF4D4E;" cx="284" cy="296" r="51.2"/>
<path style="fill:#CE3A41;" d="M247.2,259.2c20-20,52.8-20,72.8,0s20,52.8,0,72.8"/>
<g>
	<path style="fill:#F4929C;" d="M262.4,308c5.6,11.2,5.6,22.4,0.8,24.8c-4.8,2.4-13.6-4-19.2-15.2c-5.6-11.2-5.6-21.6-0.8-24.8
		C248.8,290.4,256.8,296.8,262.4,308z"/>
	
		<ellipse transform="matrix(0.3144 -0.9493 0.9493 0.3144 -98.6533 424.8572)" style="fill:#F4929C;" cx="244.804" cy="280.727" rx="8" ry="4"/>
</g>
<circle style="fill:#EF4D4E;" cx="275.2" cy="171.2" r="51.2"/>
<path style="fill:#CE3A41;" d="M312,134.4c20,20,20,52.8,0,72.8s-52.8,20-72.8,0"/>
<g>
	<path style="fill:#F4929C;" d="M263.2,150.4c-11.2,5.6-22.4,5.6-24.8,0.8c-2.4-4.8,4-13.6,15.2-19.2c11.2-5.6,21.6-5.6,24.8-0.8
		C280.8,136,273.6,144.8,263.2,150.4z"/>
	
		<ellipse transform="matrix(0.9492 0.3147 -0.3147 0.9492 56.4319 -84.4286)" style="fill:#F4929C;" cx="289.686" cy="132.551" rx="8" ry="4"/>
</g>
<path style="fill:#4DA044;" d="M208,174.4c0,0-12.8-36,38.4-64c0,0-48.8-12.8-41.6-30.4c0,0-28.8,1.6-28-30.4c0,0-32-8-34.4-31.2
	c0,0-34.4,22.4-100.8-18.4c0,0,40,82.4,23.2,109.6c0,0,46.4,11.2,46.4,40.8c0,0,19.2,10.4,16,26.4c0,0,36.8-13.6,64.8-0.8l-65.6-92
	L208,174.4z"/>
<path style="fill:#317A26;" d="M212.8,302.4c0,0-41.6,32-101.6,6.4c0,0-12,47.2-44.8,44c0,0-5.6,48-24.8,46.4
	c0,0,3.2,31.2-13.6,38.4c0,0,7.2,41.6-13.6,59.2c0,0,46.4-15.2,66.4-8.8c0,0,33.6-28,56.8-19.2c0,0,31.2-43.2,56-31.2
	c0,0,10.4-37.6,18.4-36.8c7.2,0.8-12.8-9.6-0.8-57.6c0,0-59.2,68.8-126.4,95.2c0,0,72-44.8,113.6-101.6l10.4-12.8L212.8,302.4z"/>
<g>
	<circle style="fill:#991428;" cx="239.2" cy="367.2" r="18.4"/>
	<circle style="fill:#991428;" cx="279.2" cy="365.6" r="6.4"/>
	<circle style="fill:#991428;" cx="242.4" cy="412" r="13.6"/>
</g>
<circle style="fill:#EF4D4E;" cx="272" cy="392.8" r="7.2"/>
<path style="fill:#5C9B13;" d="M311.2,227.2c0,0,27.2-8,28.8-48.8c0,0,20,4,35.2-13.6c0,0,12,13.6,40.8,0c0,0,15.2,28.8,66.4,26.4
	c0,0-51.2,40.8-64,75.2c0,0-24.8-13.6-37.6,6.4c0,0-19.2-12.8-27.2,0.8c0,0-16-24.8-27.2-31.2c0,0,80.8-4.8,116-38.4
	c0,0-51.2,28.8-124.8,28.8H292L311.2,227.2z"/>
<g>
</g>
<g>
</g>
<g>
</g>
<g>
</g>
<g>
</g>
<g>
</g>
<g>
</g>
<g>
</g>
<g>
</g>
<g>
</g>
<g>
</g>
<g>
</g>
<g>
</g>
<g>
</g>
<g>
</g>
</svg>
