<?xml version="1.0" encoding="iso-8859-1"?>
<!-- Generator: Adobe Illustrator 19.0.0, SVG Export Plug-In . SVG Version: 6.00 Build 0)  -->
<svg version="1.1" id="Capa_1" xmlns="http://www.w3.org/2000/svg" xmlns:xlink="http://www.w3.org/1999/xlink" x="0px" y="0px"
	 viewBox="0 0 512 512" style="enable-background:new 0 0 512 512;" xml:space="preserve">
<path style="fill:#F8CA4F;" d="M237.765,463.479l-100.052,35.579c-27.724,9.859-56.703-11.196-55.894-40.61l2.919-106.15
	c0.344-12.514-3.636-24.764-11.27-34.686L8.712,233.451c-17.944-23.321-6.874-57.388,21.35-65.708l101.857-30.025
	c12.008-3.54,22.428-11.111,29.505-21.437l60.031-87.593c16.635-24.272,52.455-24.272,69.089,0l60.031,87.593
	c7.077,10.326,17.498,17.897,29.505,21.437l101.857,30.025c28.224,8.32,39.293,42.387,21.35,65.708l-64.755,84.161
	c-7.634,9.922-11.614,22.172-11.27,34.686l2.919,106.15c0.809,29.414-28.17,50.468-55.894,40.61l-100.052-35.579
	C262.44,459.284,249.56,459.284,237.765,463.479z"/>
<g>
	<path style="opacity:0.3;fill:#FFFFFF;enable-background:new    ;" d="M99.065,493.48c10.609,7.708,24.785,10.507,38.647,5.578
		l100.053-35.579c5.897-2.097,12.066-3.146,18.235-3.146V277.478L99.065,493.48z"/>
	<path style="opacity:0.3;fill:#FFFFFF;enable-background:new    ;" d="M350.576,116.281l-60.032-87.593
		c-8.317-12.136-21.43-18.204-34.544-18.204v266.994l107.48-147.933C358.489,125.919,354.115,121.444,350.576,116.281z"/>
</g>
<path style="opacity:0.05;enable-background:new    ;" d="M148.52,129.544c-4.991,3.626-10.598,6.404-16.602,8.174L30.062,167.743
	C15.95,171.904,6.126,182.5,2.074,194.972L256,277.478L148.52,129.544z"/>
<path style="opacity:0.1;enable-background:new    ;" d="M509.926,194.972L256,277.478l173.906,56.505
	c1.906-5.867,4.81-11.41,8.627-16.371l64.755-84.161C512.26,221.791,513.978,207.444,509.926,194.972z"/>
<path style="opacity:0.1;enable-background:new    ;" d="M82.094,333.983c1.906,5.867,2.815,12.058,2.643,18.315l-2.92,106.15
	c-0.404,14.707,6.638,27.324,17.247,35.032L256,277.478L82.094,333.983z"/>
<path style="opacity:0.3;fill:#FFFFFF;enable-background:new    ;" d="M427.263,352.298c-0.172-6.257,0.737-12.448,2.643-18.315
	L256,277.478L412.935,493.48c10.609-7.708,17.652-20.325,17.247-35.032L427.263,352.298z"/>
<g>
</g>
<g>
</g>
<g>
</g>
<g>
</g>
<g>
</g>
<g>
</g>
<g>
</g>
<g>
</g>
<g>
</g>
<g>
</g>
<g>
</g>
<g>
</g>
<g>
</g>
<g>
</g>
<g>
</g>
</svg>
