<svg id="Capa_1" enable-background="new 0 0 512 512" height="512" viewBox="0 0 512 512" width="512" xmlns="http://www.w3.org/2000/svg"><g><g><path d="m269.451 16.361 50.351 102.022c2.185 4.427 6.408 7.496 11.294 8.206l112.588 16.36c12.303 1.788 17.216 16.907 8.313 25.585l-81.469 79.413c-3.535 3.446-5.148 8.411-4.314 13.277l19.232 112.133c2.102 12.254-10.76 21.598-21.764 15.813l-100.702-52.943c-4.37-2.297-9.59-2.297-13.96 0l-100.701 52.942c-11.004 5.785-23.866-3.559-21.764-15.813l19.232-112.133c.835-4.866-.779-9.831-4.314-13.277l-81.469-79.413c-8.903-8.678-3.99-23.798 8.313-25.585l112.588-16.36c4.886-.71 9.109-3.778 11.294-8.206l50.351-102.022c5.501-11.147 21.399-11.147 26.901.001z" fill="#ffe08c"/><g><path d="m262.98 318.227c-4.37-2.297-9.59-2.297-13.96 0l-121.388 63.818c3.338 7.376 12.521 11.418 20.687 7.124l100.701-52.942c4.37-2.297 9.59-2.297 13.96 0l100.701 52.942c8.166 4.293 17.349.252 20.687-7.124z" fill="#f9d375"/></g><path d="m262.98 336.227c-4.37-2.297-9.59-2.297-13.96 0l-24.994 13.14-15.097 138.001c-.971 8.877 5.981 16.631 14.911 16.631h64.322c8.93 0 15.882-7.754 14.911-16.631l-15.098-138.001z" fill="#febd55"/><path d="m287.974 349.368-24.994-13.14c-4.37-2.297-9.59-2.297-13.96 0l-24.994 13.14-2.089 19.098 27.084-14.239c4.37-2.297 9.59-2.297 13.96 0l27.084 14.239z" fill="#f9ab43"/></g><path d="m457.626 173.744c6.19-6.034 8.376-14.889 5.704-23.11-2.671-8.221-9.645-14.1-18.199-15.342l-53.451-7.767c-4.11-.597-7.92 2.248-8.517 6.356-.597 4.107 2.249 7.921 6.356 8.517l49.732 7.226-175.737 57.613v-186.447l49.674 100.65c3.285 6.655 9.63 11.265 16.974 12.332l29.536 4.292c4.109.601 7.92-2.249 8.517-6.356s-2.249-7.921-6.356-8.517l-29.536-4.292c-2.448-.356-4.563-1.893-5.658-4.111l-50.449-102.222c-3.826-7.751-11.572-12.566-20.216-12.566s-16.39 4.815-20.216 12.566l-50.449 102.221c-1.095 2.219-3.21 3.756-5.659 4.112l-112.808 16.392c-8.554 1.243-15.527 7.122-18.199 15.342-2.671 8.221-.485 17.077 5.705 23.11l81.628 79.568c1.772 1.727 2.58 4.214 2.161 6.652l-19.27 112.352c-1.461 8.52 1.976 16.969 8.969 22.049 6.994 5.081 16.091 5.737 23.742 1.716l63.352-33.306-6.6 60.327c-.451 4.125 2.527 7.836 6.653 8.287.277.03.553.045.826.045 3.784 0 7.04-2.85 7.461-6.698l7.701-70.395 21.505-11.306c2.19-1.152 4.804-1.152 6.993 0l21.505 11.306 14.692 134.296c.235 2.151-.431 4.223-1.875 5.834-1.445 1.611-3.432 2.499-5.595 2.499h-64.448c-2.163 0-4.15-.887-5.595-2.498-1.444-1.611-2.11-3.683-1.875-5.834l3.722-34.025c.451-4.125-2.527-7.836-6.653-8.287-4.126-.452-7.837 2.527-8.287 6.653l-3.722 34.025c-.696 6.36 1.355 12.738 5.625 17.501 4.271 4.763 10.389 7.495 16.785 7.495h64.448c6.397 0 12.515-2.732 16.786-7.495 4.27-4.763 6.32-11.142 5.625-17.501l-13.591-124.229 63.352 33.306c3.328 1.75 6.929 2.613 10.512 2.613 4.655 0 9.278-1.459 13.23-4.33 6.993-5.081 10.43-13.53 8.969-22.049l-19.27-112.352c-.418-2.438.39-4.925 2.161-6.652zm-304.649 88.76c1.254-7.315-1.169-14.774-6.484-19.954l-81.628-79.568c-.058-.057-.104-.12-.16-.178l70.916 23.249c.777.255 1.567.376 2.342.376 3.16 0 6.101-2.009 7.139-5.176 1.293-3.944-.856-8.189-4.8-9.482l-67.555-22.147 109.09-15.852c7.344-1.067 13.689-5.677 16.974-12.332l49.674-100.65v186.447l-79.607-26.098c-3.944-1.294-8.189.856-9.482 4.8s.856 8.189 4.8 9.482l79.567 26.085-109.005 147.228zm113.514 67.229c-6.569-3.455-14.412-3.454-20.981 0l-100.898 53.046c-.68.358-1.387.6-2.1.741l113.488-153.282 113.489 153.282c-.714-.141-1.42-.384-2.1-.741zm92.531-67.228 18.22 106.229-109.006-147.228 179.059-58.703c-.056.058-.102.122-.16.179l-81.629 79.568c-5.314 5.18-7.738 12.64-6.484 19.955z"/></g></svg>