
                            <svg enable-background="new 0 0 400 400" viewBox="0 0 400 400" xmlns="http://www.w3.org/2000/svg" xmlns:xlink="http://www.w3.org/1999/xlink"><clipPath id="a"><ellipse cx="222.57" cy="289.73" rx="5.42" ry="3.87" transform="matrix(.9754 -.2206 .2206 .9754 -58.4206 56.224)"></ellipse></clipPath><path d="m231.36 328.65c-8.3 1.88-16.55-3.33-18.43-11.63l-13.29-58.78c-1.88-8.3 3.33-16.55 11.63-18.43 8.3-1.88 16.55 3.33 18.43 11.63l13.29 58.78c1.87 8.3-3.33 16.55-11.63 18.43z" fill="#edd0a9"></path><path d="m258.05 89.44c6.77-1.24 23.69 9.85 25.9 19.97 2.21 10.13 2.07 25.25-5.86 45.83s-11.97 21.6-7.44 43.21c4.14 8.59 8.3 50.85-35.33 63.37s-83.01 18.7-91.85-17.91c-3.6-14.91 1.88-23.48-32.1-52.3-13.52-14.01-18.51-24.59-20.55-32.67s.67-33.72 27.4-34.54c-1.19-6.09-8.22-24.75-3.03-36.86 5.93-11.48 13.33-21.71 33.86-22.71 0 0 10.86-1.58 22 8.5 3.3-1.65 15.25-24.16 33.07-24.02 12.63.1 24.96 2.76 31.94 20.74 4.2 9.27 2.33 20.34 6.57 21.45 3.97 1.05 8.65-.81 15.42-2.06" fill="#fff8e1"></path><path d="m240.27 182.12-.33-.36c-2.45-3.6-5.41-6.78-8.75-9.46l-18.42-19.93c-12.52-13.55-35.01-8.46-40.49 9.15l-8.05 25.92c-1.86 3.86-3.16 8-3.82 12.31l-.14.46c-1.84 5.92-1.29 11.75.93 16.75 5.71 23.09 28.87 37.48 52.18 32.21s38.03-28.22 33.25-51.52c-.15-5.47-2.16-10.98-6.36-15.53z" fill="#f7efd0"></path><path d="m238.17 180.03-.32-.34c-2.36-3.46-5.2-6.52-8.41-9.1l-17.71-19.16c-12.04-13.03-33.66-8.14-38.93 8.8l-7.74 24.92c-1.79 3.71-3.04 7.69-3.68 11.83l-.14.45c-1.77 5.69-1.24 11.3.89 16.1 5.49 22.2 27.76 36.03 50.17 30.96s36.56-27.13 31.97-49.54c-.12-5.25-2.05-10.54-6.1-14.92z" fill="#f87680"></path><path d="m143.52 147.58c13.65 14.07 19.5 34.32 10.51 41.76-9.62 6.59-29.99-1.54-42.97-14.68-10.81-10.17-10.26-21.7-1.32-29.21 8.31-8.37 22.29-8.97 33.78 2.13z" fill="#f7efd0"></path><path d="m138.9 145.81c13.65 14.07 19.5 34.32 10.51 41.76-9.62 6.59-29.99-1.54-42.97-14.68-10.81-10.17-10.26-21.7-1.32-29.21 8.31-8.37 22.3-8.97 33.78 2.13z" fill="#f87680"></path><path d="m175.78 104.39c8.36 17.43 5.59 36.44-5.51 40.6-10.87 3.5-26.82-6.76-36.29-21.04-9.97-12.89-8.87-27.22 3.12-33.86 12.22-7.32 29.83-1.74 38.68 14.3z" fill="#f7efd0"></path><path d="m173.76 98.53c8.36 17.43 5.59 36.44-5.51 40.6-10.87 3.5-26.82-6.76-36.29-21.04-9.97-12.89-8.87-27.22 3.12-33.86 12.21-7.32 29.83-1.74 38.68 14.3z" fill="#f87680"></path><path d="m226.93 98.38c-1.69 15.97-13.58 29.56-26.51 30.18-12.91.55-21.2-15.05-18.57-34.65 2.6-19.47 14.37-32.59 26.33-29.51 11.99 3.02 20.41 18.15 18.75 33.98z" fill="#f7efd0"></path><path d="m227.51 94.74c-1.69 15.97-13.58 29.56-26.51 30.18-12.91.55-21.2-15.05-18.57-34.65 2.6-19.47 14.37-32.59 26.33-29.51 12 3.02 20.41 18.15 18.75 33.98z" fill="#f87680"></path><path d="m273.85 138.62c-5.35 14.01-17.52 23.99-27.59 21.36-10.22-2.96-15.75-20.24-11.93-37.66 4.14-16.71 17.36-24.34 29.12-17.96 11.6 6.03 16.07 20.96 10.4 34.26z" fill="#f7efd0"></path><path d="m275.1 134.83c-5.35 14.01-17.52 23.99-27.59 21.36-10.22-2.96-15.75-20.24-11.93-37.66 4.14-16.71 17.36-24.34 29.12-17.96 11.6 6.03 16.07 20.95 10.4 34.26z" fill="#f87680"></path><path d="m134.23 201.42s13.06 17.41 14.51 26.91 7.83 28.42 19.21 32.17" fill="none" stroke="#fffef8" stroke-miterlimit="10" stroke-width="6"></path><circle cx="113.68" cy="158.67" fill="#f9dee3" r="2.74"></circle><circle cx="157.99" cy="120.22" fill="#f9dee3" r="5.14"></circle><circle cx="228.26" cy="201.21" fill="#f9dee3" r="5.14"></circle><circle cx="217.06" cy="75.62" fill="#f9dee3" r="2.05"></circle><g fill="#f4647a"><circle cx="138.92" cy="174.03" r="4.11"></circle><circle cx="207.01" cy="108.78" r="4.11"></circle><circle cx="214.59" cy="89.51" r="4.11"></circle><circle cx="188.63" cy="179.64" r="9.59"></circle><circle cx="183.32" cy="208.92" r="5.48"></circle><circle cx="248.58" cy="121.85" r="4.11"></circle><circle cx="267.95" cy="117.47" r="4.11"></circle></g><circle cx="126.95" cy="152.16" fill="#f98f9b" r="2.74"></circle><circle cx="142.45" cy="105.83" fill="#f98f9b" r="2.74"></circle><circle cx="196.25" cy="92.26" fill="#f98f9b" r="2.74"></circle><circle cx="212.01" cy="174.35" fill="#f98f9b" r="2.74"></circle><circle cx="258.43" cy="134.36" fill="#f98f9b" r="2.74"></circle><circle cx="206.83" cy="208.87" fill="#f98f9b" r="5.82"></circle><circle cx="161.39" cy="105.76" fill="#f4647a" r="2.74"></circle><circle cx="151.69" cy="93.91" fill="#f4647a" r="5.48"></circle><circle cx="126.42" cy="168.43" fill="#f98f9b" r="4.11"></circle><path d="m244.52 249.84s18.98-9.21 22.53-33.88" fill="none" stroke="#fffef8" stroke-linecap="round" stroke-miterlimit="10" stroke-width="6"></path><path d="m214.34 279.47 3.86 1.73" fill="none" stroke="#000" stroke-linecap="round" stroke-miterlimit="10" stroke-width="2"></path><path d="m217.99 281.64-2.06 3.46" fill="none" stroke="#000" stroke-linecap="round" stroke-miterlimit="10" stroke-width="2"></path><path d="m225.99 276.84-2.75 3.22" fill="none" stroke="#000" stroke-linecap="round" stroke-miterlimit="10" stroke-width="2"></path><path d="m223.63 280.36 3.34 2.24" fill="none" stroke="#000" stroke-linecap="round" stroke-miterlimit="10" stroke-width="2"></path><ellipse cx="222.54" cy="289.6" rx="5.42" ry="3.87" transform="matrix(.9754 -.2206 .2206 .9754 -58.391 56.2138)"></ellipse><path clip-path="url(#a)" d="m215.9 290.58s6.13-4.7 13.07-2.95c6.93 1.74 3.29 5.87 3.29 5.87l-13.74 5.75z" fill="#ef357d"></path><path d="m221.31 285.81h.99v.99h-.99z" fill="#fcfcfc" transform="matrix(.9754 -.2206 .2206 .9754 -57.6822 55.9681)"></path><path d="m220.62 285.81h2.36v.99h-2.36z" fill="#fcfcfc" transform="matrix(.9754 -.2206 .2206 .9754 -57.6822 55.9681)"></path><path d="m150.68 303.96-14.79 4.48-9.24-13.29 14.79-4.48z" fill="#acdffc"></path><path d="m264.35 67.21-14.25-8.63 4-16.97 14.24 8.63z" fill="#acdffc"></path><path d="m323.26 174.01-11.57-7 3.24-13.78 11.57 7z" fill="#66f7bc"></path><path d="m88.97 114.63-8.89-1.11-1.76-9.21 8.89 1.11z" fill="#c767f4"></path><path d="m254.2 265.46-5.42-7.73 5.95-7.89 5.42 7.72z" fill="#c767f4"></path><circle cx="318.38" cy="280.89" fill="#acdffc" r="10.21"></circle><circle cx="80.19" cy="234.8" fill="#f78dd4" r="9.46"></circle><circle cx="323.88" cy="99.93" fill="#f9acdc" r="4.54"></circle><circle cx="115.82" cy="196.1" fill="#acdffc" r="4.92"></circle><path d="m63.5 177.02s-1.42-5.25 3.59-8.58 1.35-7.91-1.27-10.3" fill="none" stroke="#66f7bc" stroke-linecap="round" stroke-miterlimit="10" stroke-width="6"></path><path d="m322.92 209.82s-1.42-5.25 3.59-8.58 1.35-7.91-1.27-10.3" fill="none" stroke="#f78dd4" stroke-linecap="round" stroke-miterlimit="10" stroke-width="6"></path></svg>                            